<svg aria-hidden="true" style="position: absolute; width: 0; height: 0; overflow: hidden;" version="1.1" xmlns="http://www.w3.org/2000/svg" xmlns:xlink="http://www.w3.org/1999/xlink">
<defs>
    <symbol id="icon-menu_open" viewBox="0 0 24 24">
        <path d="M21 15.609l-1.406 1.406-5.016-5.016 5.016-5.016 1.406 1.406-3.563 3.609zM3 6h12.984v2.016h-12.984v-2.016zM3 12.984v-1.969h9.984v1.969h-9.984zM3 18v-2.016h12.984v2.016h-12.984z"></path>
    </symbol>
<symbol id="icon-usb" viewBox="0 0 36 28">
<path d="M35.75 12.578c0.156 0.078 0.25 0.25 0.25 0.422s-0.094 0.344-0.25 0.422l-5 3c-0.078 0.047-0.156 0.078-0.25 0.078-0.078 0-0.172-0.016-0.25-0.063-0.156-0.094-0.25-0.25-0.25-0.438v-2h-13.406c0.5 0.781 0.922 1.703 1.297 2.578 0.75 1.687 1.516 3.422 2.609 3.422h1.5v-1.5c0-0.281 0.219-0.5 0.5-0.5h5c0.281 0 0.5 0.219 0.5 0.5v5c0 0.281-0.219 0.5-0.5 0.5h-5c-0.281 0-0.5-0.219-0.5-0.5v-1.5h-1.5c-2.391 0-3.469-2.453-4.438-4.609-0.734-1.672-1.5-3.391-2.562-3.391h-5.625c-0.453 1.719-2.016 3-3.875 3-2.203 0-4-1.797-4-4s1.797-4 4-4c1.859 0 3.422 1.281 3.875 3h1.625c1.062 0 1.828-1.719 2.562-3.391 0.969-2.156 2.047-4.609 4.438-4.609h1.672c0.422-1.172 1.516-2 2.828-2 1.656 0 3 1.344 3 3s-1.344 3-3 3c-1.313 0-2.406-0.828-2.828-2h-1.672c-1.094 0-1.859 1.734-2.609 3.422-0.375 0.875-0.797 1.797-1.297 2.578h17.406v-2c0-0.187 0.094-0.344 0.25-0.438s0.359-0.078 0.5 0.016z"></path>
</symbol>
<symbol id="icon-thermometer" viewBox="0 0 32 32">
<path d="M18.959 17.913v-0.917h3.063v0.917h-3.063zM18.959 14.975h3.063v0.979h-3.063v-0.979zM18.959 13.015h3.063v0.98h-3.063v-0.98zM18.959 10.993h3.063v0.979l-3.063-0.062v-0.917zM18.959 8.909h3.063v1.042h-3.063v-1.042zM18.959 6.95h3.063v0.98h-3.063v-0.98zM20.733 24.153c0 3.246-2.632 5.878-5.878 5.878s-5.878-2.632-5.878-5.878c0-2.226 1.175-4.161 2.999-5.159v-13.087c0-1.623 1.378-2.938 3.001-2.938s2.939 1.315 2.939 2.938v13.235c1.688 1.034 2.817 2.888 2.817 5.011zM16.937 19.735v-13.828c0-1.082-0.877-1.959-1.959-1.959s-1.959 0.877-1.959 1.959v13.711c-1.794 0.728-3.062 2.48-3.062 4.535 0 2.705 2.193 4.898 4.898 4.898s4.897-2.193 4.897-4.898c0.001-1.958-1.155-3.633-2.815-4.418zM14.855 28.072c-2.165 0-3.919-1.755-3.919-3.919 0-1.869 1.311-3.426 3.062-3.818v-9.342h1.96v9.418c1.623 0.479 2.816 1.964 2.816 3.742 0 2.164-1.754 3.919-3.919 3.919z"></path>
</symbol>
<symbol id="icon-modem" viewBox="0 0 48 48">
<path d="M0 44c0 2.21 1.79 4 4 4h40c2.21 0 4-1.79 4-4l-0-11c0-2.21-1.79-4-4-4h-12v-10.5c0-1.38-1.12-2.5-2.5-2.5s-2.5 1.12-2.5 2.5v10.5h-23c-2.21 0-4 1.79-4 4v11zM5 38.5c0-1.38 1.12-2.5 2.5-2.5s2.5 1.12 2.5 2.5-1.12 2.5-2.5 2.5-2.5-1.12-2.5-2.5zM14 38.5c0-1.38 1.12-2.5 2.5-2.5s2.5 1.12 2.5 2.5-1.12 2.5-2.5 2.5-2.5-1.12-2.5-2.5zM29.5 8c-5.8 0-10.5 4.7-10.5 10.5 0 1.38 1.12 2.5 2.5 2.5s2.5-1.12 2.5-2.5c0-3.040 2.46-5.5 5.5-5.5s5.5 2.46 5.5 5.5c0 1.38 1.12 2.5 2.5 2.5s2.5-1.12 2.5-2.5c-0-5.8-4.7-10.5-10.5-10.5zM29.5 0c-10.22 0-18.5 8.28-18.5 18.5 0 1.38 1.12 2.5 2.5 2.5s2.5-1.12 2.5-2.5c0-7.46 6.040-13.5 13.5-13.5s13.5 6.040 13.5 13.5c0 1.38 1.12 2.5 2.5 2.5s2.5-1.12 2.5-2.5c-0-10.22-8.279-18.5-18.5-18.5z"></path>
</symbol>
<symbol id="icon-creditcard" viewBox="0 0 32 32">
<path d="M30 4h-28c-1.104 0-2 0.896-2 2v20c0 1.104 0.896 2 2 2h28c1.104 0 2-0.896 2-2v-20c0-1.104-0.896-2-2-2zM3 6h26c0.553 0 1 0.447 1 1v3h-28v-3c0-0.553 0.447-1 1-1zM29 26h-26c-0.553 0-1-0.447-1-1v-9h28v9c0 0.553-0.447 1-1 1z"></path>
</symbol>
<symbol id="icon-hardware" viewBox="0 0 48 48">
<path d="M6 38c0 2.21 1.79 4 4 4h1v3.5c0 1.38 1.12 2.5 2.5 2.5s2.5-1.12 2.5-2.5l-0-3.5h5v3.5c0 1.38 1.12 2.5 2.5 2.5s2.5-1.12 2.5-2.5l-0-3.5h5v3.5c0 1.38 1.12 2.5 2.5 2.5s2.5-1.12 2.5-2.5v-3.5h1c2.21 0 4-1.79 4-4v-1h3.5c1.38 0 2.5-1.12 2.5-2.5s-1.12-2.5-2.5-2.5h-3.5v-5h3.5c1.38 0 2.5-1.12 2.5-2.5s-1.12-2.5-2.5-2.5h-3.5v-5h3.5c1.38 0 2.5-1.12 2.5-2.5s-1.12-2.5-2.5-2.5h-3.5v-1c0-2.21-1.79-4-4-4h-1l0-3.5c0-1.38-1.12-2.5-2.5-2.5s-2.5 1.12-2.5 2.5v3.5h-5l-0-3.5c0-1.38-1.12-2.5-2.5-2.5s-2.5 1.12-2.5 2.5v3.5h-5v-3.5c0-1.38-1.12-2.5-2.5-2.5s-2.5 1.12-2.5 2.5v3.5h-1c-2.21 0-4 1.79-4 4v1l-3.5-0c-1.38 0-2.5 1.12-2.5 2.5s1.12 2.5 2.5 2.5h3.5v5l-3.5 0c-1.38 0-2.5 1.12-2.5 2.5s1.12 2.5 2.5 2.5h3.5v5h-3.5c-1.38 0-2.5 1.12-2.5 2.5s1.12 2.5 2.5 2.5h3.5v1zM31 19.2v10.6c0 1.22-0.98 2.2-2.2 2.2l-10.6-0c-1.22 0-2.2-0.98-2.2-2.2l0-10.6c0-1.22 0.98-2.2 2.2-2.2h10.6c1.22 0 2.2 0.98 2.2 2.2z"></path>
</symbol>

<symbol id="icon-cancel" viewBox="0 0 32 32">
<path d="M19.587 16.001l6.096 6.096c0.396 0.396 0.396 1.039 0 1.435l-2.151 2.151c-0.396 0.396-1.038 0.396-1.435 0l-6.097-6.096-6.097 6.096c-0.396 0.396-1.038 0.396-1.434 0l-2.152-2.151c-0.396-0.396-0.396-1.038 0-1.435l6.097-6.096-6.097-6.097c-0.396-0.396-0.396-1.039 0-1.435l2.153-2.151c0.396-0.396 1.038-0.396 1.434 0l6.096 6.097 6.097-6.097c0.396-0.396 1.038-0.396 1.435 0l2.151 2.152c0.396 0.396 0.396 1.038 0 1.435l-6.096 6.096z"></path>
</symbol>
<symbol id="icon-spinner" viewBox="0 0 32 32">
<path d="M16 32c-4.274 0-8.292-1.664-11.314-4.686s-4.686-7.040-4.686-11.314c0-3.026 0.849-5.973 2.456-8.522 1.563-2.478 3.771-4.48 6.386-5.791l1.344 2.682c-2.126 1.065-3.922 2.693-5.192 4.708-1.305 2.069-1.994 4.462-1.994 6.922 0 7.168 5.832 13 13 13s13-5.832 13-13c0-2.459-0.69-4.853-1.994-6.922-1.271-2.015-3.066-3.643-5.192-4.708l1.344-2.682c2.615 1.31 4.824 3.313 6.386 5.791 1.607 2.549 2.456 5.495 2.456 8.522 0 4.274-1.664 8.292-4.686 11.314s-7.040 4.686-11.314 4.686z"></path>
</symbol>


</defs>
</svg>

